<svg viewBox="0 0 25 25" fill="none" xmlns="http://www.w3.org/2000/svg">
<path d="M2.4393 22.5061L0.0439932 8.92144C0.0208644 8.79032 0.00644667 8.65782 0.000834494 8.5248C-0.0347632 6.98465 1.07232 5.65426 2.59467 5.40778L7.21697 4.59296L7.09181 22.5061H2.4393Z" fill="#BABABA"/>
<path d="M20.2295 21.9112C20.1494 22.2437 19.8802 22.4973 19.5433 22.5579L5.93967 24.955C5.08223 25.1045 4.20185 24.8779 3.52346 24.3332C2.84508 23.7884 2.43439 22.9782 2.39634 22.1096C2.36234 20.637 3.37724 19.3467 4.81754 19.0313L8.62846 20.1005H8.62414L5.19302 20.7084C4.81035 20.7756 4.478 21.0106 4.28739 21.3488C4.09679 21.687 4.06802 22.0928 4.209 22.4545C4.45312 23.037 5.07311 23.3682 5.69366 23.2477L16.0906 21.4155L20.2295 21.9112Z" fill="#474747"/>
<path d="M8.62389 20.1005L5.19277 20.7084C4.8101 20.7756 4.47775 21.0106 4.28714 21.3488C4.09654 21.687 4.06777 22.0928 4.20875 22.4544C4.45287 23.0369 5.07286 23.3682 5.69341 23.2477L16.0904 21.4154L8.62389 20.1005Z" fill="white"/>
<path d="M5.5061 14.298L7.90443 0.711592C7.99028 0.244579 8.43576 -0.0669342 8.90442 0.0123101L22.4032 2.38996C23.9266 2.63663 25.0346 3.96787 24.9992 5.50913C24.9933 5.64156 24.9789 5.77347 24.956 5.90404L22.5577 19.4905L5.5061 14.298Z" fill="#7B7B7B"/>
<path d="M19.5811 4.5128C19.5558 4.51279 19.5305 4.51063 19.5056 4.50634L9.72967 2.78443C9.50906 2.73008 9.36841 2.51417 9.40804 2.29066C9.44766 2.06716 9.65398 1.91263 9.87986 1.93727L19.6553 3.65702C19.8758 3.6956 20.0301 3.89615 20.0108 4.1189C19.9915 4.34165 19.8049 4.51268 19.5811 4.5128Z" fill="black"/>
<path d="M17.506 6.33476C17.4807 6.3348 17.4554 6.33249 17.4305 6.32787L11.0551 5.20651C10.8257 5.16005 10.6752 4.93942 10.7158 4.70917C10.7565 4.47892 10.9734 4.32297 11.2049 4.35763L17.5807 5.47855C17.8025 5.51599 17.9583 5.71725 17.9387 5.94106C17.9192 6.16487 17.7309 6.3362 17.506 6.33476Z" fill="black"/>
<path d="M18.4072 8.26033L9.4798 6.685C9.24502 6.64357 9.02107 6.80011 8.97959 7.03464L8.22863 11.2812C8.18715 11.5157 8.34386 11.7395 8.57865 11.7809L17.506 13.3562C17.7408 13.3976 17.9648 13.2411 18.0062 13.0066L18.7572 8.76C18.7987 8.52547 18.642 8.30176 18.4072 8.26033Z" fill="#FF6337"/>
<path d="M24.9984 5.50702C24.9932 5.64008 24.9788 5.77261 24.9552 5.90366L22.5556 19.4884L19.228 18.4752L21.1572 7.55055L21.6147 4.97243L22.0808 2.33395L22.4045 2.39C23.9262 2.6377 25.0326 3.96733 24.9984 5.50702Z" fill="#474747"/>
<path d="M20.0048 15.9747L6.50474 13.5992C6.45485 13.5906 6.40432 13.5863 6.35369 13.5862C5.90636 13.5874 5.53402 13.9297 5.49585 14.3749C5.45768 14.8201 5.76633 15.2207 6.20695 15.2978L19.8063 17.6905C20.1886 17.7597 20.5199 17.996 20.7096 18.3348C20.8992 18.6736 20.9272 19.0793 20.786 19.4409C20.5432 20.0221 19.9241 20.3521 19.3056 20.2299L5.7581 17.8457C5.7082 17.8372 5.65767 17.8328 5.60704 17.8328C5.15889 17.8317 4.78443 18.1734 4.74508 18.6193C4.70572 19.0653 5.01455 19.4671 5.45599 19.5444L19.0596 21.9371C19.9164 22.0871 20.7964 21.8614 21.4748 21.3174C22.1532 20.7735 22.5642 19.9641 22.603 19.096C22.6368 17.5541 21.5286 16.2227 20.0048 15.9747Z" fill="#474747"/>
<path d="M20.7862 19.4409C20.5434 20.0221 19.9243 20.352 19.3058 20.2298L5.7583 17.8457L6.20715 15.2978L19.8065 17.6905C20.1888 17.7597 20.5201 17.996 20.7098 18.3348C20.8994 18.6736 20.9274 19.0793 20.7862 19.4409Z" fill="white"/>
</svg>
