<svg width="30" height="30" viewBox="0 0 30 30" fill="none" xmlns="http://www.w3.org/2000/svg">
<g clip-path="url(#clip0)">
<path d="M18.621 9.397L18.075 8.102C18.075 8.102 19.342 5.243 19.232 5.133L17.554 3.494C17.437 3.381 14.576 4.685 14.576 4.685L13.256 4.152C13.256 4.152 12.087 1.254 11.929 1.254H9.559C9.395 1.254 8.317 4.16 8.317 4.16L6.998 4.695C6.998 4.695 4.076 3.453 3.964 3.56L2.287 5.203C2.171 5.318 3.506 8.119 3.506 8.119L2.962 9.414C2.962 9.414 0 10.553 0 10.709V13.031C0 13.191 2.969 14.248 2.969 14.248L3.514 15.539C3.514 15.539 2.246 18.4 2.357 18.51L4.036 20.151C4.149 20.262 7.012 18.956 7.012 18.956L8.333 19.493C8.333 19.493 9.499 22.389 9.659 22.389H12.029C12.192 22.389 13.273 19.483 13.273 19.483L14.593 18.948C14.593 18.948 17.511 20.19 17.624 20.083L19.302 18.44C19.417 18.329 18.081 15.526 18.081 15.526L18.627 14.231C18.627 14.231 21.59 13.088 21.59 12.932V10.612C21.591 10.453 18.621 9.397 18.621 9.397ZM10.795 15.207C8.89 15.207 7.336 13.687 7.336 11.82C7.336 9.955 8.89 8.435 10.795 8.435C12.703 8.435 14.254 9.955 14.254 11.82C14.254 13.688 12.703 15.207 10.795 15.207Z" fill="#FBFBFB"/>
<path d="M28.538 6.693L28.552 6.017C28.552 6.017 29.67 5.011 29.643 4.941L29.229 3.893C29.198 3.821 27.685 3.831 27.685 3.831L27.211 3.339C27.211 3.339 27.269 1.837 27.198 1.806L26.157 1.339C26.083 1.306 25.04 2.374 25.04 2.374L24.356 2.347C24.356 2.347 23.317 1.228 23.247 1.255L22.186 1.648C22.115 1.673 22.15 3.166 22.15 3.166L21.655 3.629C21.655 3.629 20.132 3.547 20.101 3.615L19.644 4.635C19.612 4.707 20.709 5.754 20.709 5.754L20.695 6.426C20.695 6.426 19.578 7.434 19.605 7.504L20.02 8.553C20.05 8.623 21.563 8.612 21.563 8.612L22.036 9.106C22.036 9.106 21.981 10.608 22.052 10.639L23.093 11.104C23.165 11.137 24.209 10.075 24.209 10.075L24.894 10.098C24.894 10.098 25.931 11.217 26.003 11.192L27.061 10.799C27.134 10.774 27.099 9.279 27.099 9.279L27.593 8.82C27.593 8.82 29.116 8.898 29.148 8.83L29.605 7.81C29.634 7.74 28.538 6.693 28.538 6.693ZM26.145 6.9C25.778 7.72 24.798 8.084 23.958 7.709C23.122 7.336 22.738 6.363 23.105 5.541C23.47 4.723 24.453 4.361 25.289 4.734C26.126 5.111 26.51 6.082 26.145 6.9Z" fill="#FBFBFB"/>
</g>
<defs>
<clipPath id="clip0">
<rect width="29.643" height="29.643" fill="white"/>
</clipPath>
</defs>
</svg>
