<svg width="52" height="33" viewBox="0 0 52 33" fill="none" xmlns="http://www.w3.org/2000/svg">
<path d="M47.9238 32.8204H4.27875C2.17358 32.8204 0.467041 31.1951 0.467041 29.1902V3.73213C0.467041 1.7272 2.17358 0.101929 4.27875 0.101929H47.9238C50.029 0.101929 51.7355 1.7272 51.7355 3.73213V29.1902C51.7355 31.195 50.029 32.8204 47.9238 32.8204Z" fill="#46738C"/>
<path d="M17.1059 19.3237V18.0699H15.7893C15.4093 18.0699 15.1514 17.7467 15.1514 17.2555C15.1514 16.7901 15.4093 16.4282 15.7893 16.4282H17.1059V15.1872C17.1059 14.877 17.4859 14.5668 17.9746 14.5668C18.4905 14.5668 18.8298 14.877 18.8298 15.1872V16.4282H20.1327C20.4585 16.4282 20.7842 16.7901 20.7842 17.2555C20.7842 17.7467 20.4585 18.0699 20.1327 18.0699H18.8298V19.3237C18.8298 19.6857 18.4905 19.9313 17.9746 19.9313C17.4859 19.9313 17.1059 19.6857 17.1059 19.3237Z" fill="white"/>
<path d="M21.422 19.1558L22.9556 17.2168L21.5713 15.4587C21.517 15.3941 21.4356 15.2647 21.4356 15.1355C21.4356 14.6831 22.3179 14.1272 22.8608 14.1272C22.9422 14.1272 23.1865 14.1402 23.3087 14.3341L24.3947 16.0275L25.4942 14.3471C25.6028 14.179 25.8199 14.1273 25.9693 14.1273C26.4579 14.1273 27.3673 14.6833 27.3673 15.1356C27.3673 15.2391 27.3266 15.3296 27.2316 15.4588L25.8336 17.2298L27.3808 19.1559C27.4351 19.2204 27.503 19.3626 27.503 19.492C27.503 19.9187 26.6749 20.4875 26.1186 20.4875C25.9558 20.4875 25.752 20.4358 25.6435 20.2806L24.3948 18.4967L23.1597 20.2806C23.051 20.4228 22.8067 20.4875 22.6574 20.4875C22.223 20.4875 21.3002 19.9574 21.3002 19.492C21.2998 19.3755 21.3541 19.2462 21.422 19.1558Z" fill="white"/>
<path d="M8.12183 19.0286L9.65546 17.0896L8.27115 15.3315C8.21684 15.2669 8.13544 15.1376 8.13544 15.0083C8.13544 14.5559 9.01775 14 9.56059 14C9.64199 14 9.88631 14.013 10.0085 14.2069L11.0945 15.9003L12.194 14.2199C12.3027 14.0519 12.5198 14.0001 12.6691 14.0001C13.1577 14.0001 14.0671 14.5561 14.0671 15.0084C14.0671 15.1119 14.0264 15.2024 13.9314 15.3316L12.5334 17.1026L14.0806 19.0287C14.1349 19.0932 14.2029 19.2354 14.2029 19.3648C14.2029 19.7915 13.3747 20.3603 12.8184 20.3603C12.6556 20.3603 12.4518 20.3086 12.3434 20.1534L11.0946 18.3695L9.8595 20.1534C9.75088 20.2956 9.50655 20.3603 9.35723 20.3603C8.92288 20.3603 8 19.8302 8 19.3648C7.9996 19.2483 8.05391 19.119 8.12183 19.0286Z" fill="white"/>
<path d="M29.0229 15.1613H32.5519C32.8776 15.1613 33.2033 15.5232 33.2033 15.9886C33.2033 16.4799 32.8776 16.8031 32.5519 16.8031H29.0229C28.6429 16.8031 28.3849 16.4799 28.3849 15.9886C28.3849 15.5233 28.6429 15.1613 29.0229 15.1613ZM29.0229 17.7855H32.5519C32.8776 17.7855 33.2033 18.1474 33.2033 18.6128C33.2033 19.1041 32.8776 19.4273 32.5519 19.4273H29.0229C28.6429 19.4273 28.3849 19.1041 28.3849 18.6128C28.3849 18.1473 28.6429 17.7855 29.0229 17.7855Z" fill="white"/>
<path d="M38.1441 15.4069C37.3975 15.9628 37.384 16.3507 37.384 17.0227C37.384 17.2684 37.2483 17.5528 36.5831 17.5528C36.0267 17.5528 35.8365 17.3588 35.8365 16.6866C35.8365 15.5749 36.3523 15.0449 36.7459 14.7217C37.1939 14.3597 37.954 13.959 37.954 13.2611C37.954 12.6664 37.411 12.3819 36.7324 12.3819C35.3481 12.3819 35.6465 13.3774 34.9136 13.3774C34.5472 13.3774 34.0992 13.1447 34.0992 12.6405C34.0992 11.9424 34.9409 10.9083 36.7731 10.9083C38.5105 10.9083 39.6643 11.8261 39.6643 13.0413C39.6643 14.2564 38.5105 15.1355 38.1441 15.4069ZM37.6418 19.4401C37.6418 19.9702 37.1803 20.4356 36.5966 20.4356C36.0129 20.4356 35.565 19.9702 35.565 19.4401C35.565 18.8972 36.0265 18.4447 36.5966 18.4447C37.1668 18.4447 37.6418 18.8971 37.6418 19.4401Z" fill="white"/>
</svg>
