<svg width="27" height="25" viewBox="0 0 27 25" fill="none" xmlns="http://www.w3.org/2000/svg">
<g clip-path="url(#clip0)">
<path d="M25.1406 -0.991985L14.8811 0.0651164C14.084 0.147057 12.7905 0.147057 11.992 0.0651164L1.73315 -0.991985C0.93529 -1.07393 0.288574 -0.534201 0.288574 0.213422V1.34163C0.288574 2.08993 0.938923 2.69602 1.74187 2.69602H6.59151C7.48892 3.42739 8.48443 3.99962 9.54242 4.39578C6.46362 5.78335 4.33527 8.71289 4.33527 12.1138C4.33527 14.1196 5.08009 15.9602 6.31756 17.4209C6.50359 17.1995 6.70123 16.9577 6.91196 16.6889C7.40608 16.0456 7.94961 15.2715 8.47207 14.4135C8.72785 13.9808 8.98363 13.5305 9.22052 13.0645C9.46249 12.6 9.67758 12.1151 9.87668 11.6269C9.90648 11.5497 9.93336 11.4718 9.96025 11.3939C10.0787 11.0485 9.32734 10.9314 9.13042 10.8494C9.00979 10.7993 9.00834 10.7025 9.12678 10.6476C9.33751 10.5494 10.2683 10.3754 10.3294 10.1702C10.333 10.158 10.3366 10.1452 10.3396 10.133C10.3977 9.8946 10.4478 9.65894 10.4943 9.42598C10.5728 9.03389 10.1681 8.7068 9.59547 8.677C9.23142 8.65804 8.88408 8.63299 8.56072 8.60251C7.79484 8.53005 7.15466 8.44066 6.70559 8.36008C6.56898 8.33637 6.45054 8.31403 6.35099 8.29439C6.15552 8.25511 6.14971 8.15692 6.33864 8.09123C6.43456 8.05805 6.54937 8.01945 6.68161 7.97814C7.11688 7.83796 7.74107 7.66257 8.49169 7.48785C8.86955 7.39981 9.2801 7.31516 9.71537 7.23593C10.3948 7.11201 10.9863 6.82217 11.0248 6.56009C11.0488 6.39756 11.0698 6.2391 11.0858 6.08538C11.1469 5.69464 11.1599 5.33234 11.2006 5.00187C11.2028 4.95446 11.2057 4.91315 11.2086 4.86711C11.2217 4.61451 11.2391 4.38156 11.2537 4.18043C11.2544 4.16621 11.2559 4.14792 11.2573 4.1337C11.2602 4.01384 11.2653 3.90617 11.2704 3.81068C11.0262 3.86824 10.7864 3.93325 10.551 4.00842C9.56422 3.72332 8.62176 3.28247 7.75633 2.69737H19.1167C18.2825 3.26148 17.3757 3.68879 16.4274 3.97389C15.5176 3.69353 14.549 3.53642 13.5397 3.53642C12.9257 3.53642 12.3262 3.59533 11.7463 3.70165C11.7943 3.78292 11.8459 3.87298 11.9033 3.97795C11.9549 4.07817 12.0065 4.19533 12.0588 4.3179C12.1264 4.47569 12.1954 4.64702 12.2695 4.83866C12.287 4.90029 12.308 4.97275 12.3277 5.03776C12.4163 5.3364 12.5151 5.6601 12.5682 6.02646C12.5929 6.15378 12.6118 6.28583 12.6278 6.42194C12.6532 6.64136 12.9693 6.78763 13.3457 6.75512C13.5724 6.73549 13.8006 6.7172 14.0287 6.7023C16.051 6.56416 18.0827 6.5865 19.6138 6.73142C20.0643 6.77409 20.4639 6.82284 20.8142 6.87228C19.9233 5.80096 18.7694 4.93415 17.4382 4.35244C18.4548 3.95899 19.4147 3.40301 20.2808 2.6967H25.1305C25.9327 2.6967 26.5838 2.09061 26.5838 1.34231V0.213422C26.5845 -0.534878 25.9378 -1.0746 25.1406 -0.991985Z" fill="#05A8B3"/>
<path d="M25.1389 20.3113L14.8809 21.3691C14.0823 21.4504 12.7896 21.4504 11.991 21.3691L1.73217 20.3113C0.934314 20.2294 0.287598 20.7691 0.287598 21.5167V22.6456C0.287598 23.3939 0.937947 24 1.74089 24H25.1295C25.9317 24 26.5835 23.3939 26.5835 22.6456V21.5167C26.5835 20.7691 25.9368 20.2294 25.1389 20.3113Z" fill="#05A8B3"/>
<path d="M1.84105 20.389C2.24143 20.3849 2.58659 20.1296 2.61202 19.8174L3.15701 13.0326C3.18171 12.7211 3.1759 12.2173 3.14393 11.9064L2.44271 5.13448C2.41074 4.82365 2.05977 4.57512 1.65939 4.57918C1.259 4.58324 0.913846 4.83855 0.888413 5.15006L0.343428 11.9349C0.318722 12.2464 0.324535 12.7502 0.356507 13.061L1.05772 19.833C1.08969 20.1445 1.44067 20.393 1.84105 20.389Z" fill="#05A8B3"/>
<path d="M25.1891 20.3497C25.5902 20.3456 25.9346 20.0903 25.9608 19.7788L26.5058 12.994C26.5298 12.6825 26.5239 12.1787 26.492 11.8678L25.7908 5.09589C25.7588 4.78574 25.4085 4.53721 25.0074 4.54059C24.607 4.54466 24.2619 4.79996 24.2357 5.11147L23.6907 11.8963C23.6668 12.2078 23.6726 12.7116 23.7046 13.0225L24.4058 19.7944C24.4377 20.1046 24.7887 20.3538 25.1891 20.3497Z" fill="#05A8B3"/>
<path d="M11.414 11.8978C11.3435 12.036 11.2723 12.1735 11.2004 12.3103C10.9228 12.8182 10.6307 13.3132 10.3161 13.7777C10.0116 14.2491 9.67081 14.6804 9.34164 15.0915C8.67821 15.9129 7.99007 16.6037 7.38405 17.1671C7.12754 17.4062 6.88847 17.6134 6.66394 17.8037C7.06868 18.2269 7.51702 18.6122 8.00388 18.9549C10.242 18.0549 12.3383 16.5542 13.8556 14.9229C13.8781 14.9005 13.8999 14.8775 13.9217 14.8531C13.9573 14.8138 13.8367 14.6459 13.6528 14.4766C13.5417 14.3757 13.4312 14.2728 13.3215 14.1698C12.7729 13.6538 12.3587 13.2461 12.395 13.2583C12.4313 13.2705 12.2322 13.2516 11.9496 13.2096C11.7788 13.1845 11.6088 13.1581 11.438 13.1337C11.3871 13.1263 11.3515 13.0768 11.3581 13.0233C11.3646 12.9787 11.398 12.9455 11.4387 12.9394C11.7795 12.8913 12.1211 12.8324 12.4619 12.7924C12.4924 12.789 12.5222 12.7951 12.5476 12.81L12.5948 12.8364C12.9393 13.0301 13.2844 13.2211 13.6296 13.4141C14.2007 13.733 14.6854 13.9687 14.7159 13.9349C14.7348 13.9139 14.7544 13.8929 14.7726 13.8732C15.0996 13.5651 15.3532 13.2089 15.6569 12.9245C15.9599 12.6373 16.2121 12.3333 16.4635 12.0631C16.7091 11.7881 16.978 11.5606 17.1727 11.3243C17.1981 11.2951 17.2229 11.2681 17.2476 11.2416C17.289 11.1963 16.5892 11.3635 15.6584 11.4861C14.8438 11.5931 14.0997 11.5383 13.2859 11.5105C12.8041 11.4949 11.6785 11.3805 11.414 11.8978Z" fill="#05A8B3"/>
<path d="M20.292 17.9276C21.8093 16.3985 22.743 14.3601 22.743 12.1139C22.743 10.3863 22.1893 8.78138 21.2468 7.43512C20.8334 7.56108 20.3051 7.706 19.6816 7.85159C18.1804 8.2017 16.1683 8.49832 14.146 8.63443C13.8845 8.65204 13.6236 8.66694 13.3627 8.67913C12.9304 8.69944 12.5663 8.79831 12.5503 8.9087C12.5409 8.97506 12.53 9.04143 12.5162 9.10779C12.49 9.22359 12.4595 9.33939 12.4268 9.45519C12.3723 9.64616 12.6789 9.75248 13.1215 9.71862C13.3867 9.6983 13.6556 9.68476 13.9251 9.67934C15.1822 9.65158 16.4423 9.78566 17.3898 10.0139C17.5402 10.0491 17.6826 10.0857 17.8156 10.1229C18.0481 10.1886 18.2414 10.2462 18.2487 10.2394C18.3119 10.1872 18.3737 10.1954 18.4078 10.2401C18.4166 10.2516 18.4224 10.2638 18.4245 10.278C18.4304 10.3003 18.4529 10.3274 18.4827 10.3383C18.5008 10.345 18.5197 10.3518 18.5365 10.3579C18.6207 10.389 18.6956 10.4188 18.7566 10.4446C18.8772 10.4947 18.8787 10.5922 18.7595 10.6477C18.6999 10.6762 18.6273 10.7087 18.5437 10.7432C18.5139 10.7561 18.4812 10.7696 18.4471 10.7832C18.3948 10.8048 18.3417 10.8759 18.3279 10.943C18.3206 10.9816 18.3126 11.0215 18.3039 11.0635C18.03 12.4159 17.4603 13.5658 16.6348 14.7035C16.5992 14.7603 16.5592 14.8132 16.5186 14.866C16.4517 14.9533 16.584 15.1375 16.8208 15.2804C16.9654 15.3664 17.1086 15.4518 17.2554 15.535C17.6456 15.7572 18.0532 15.9542 18.4311 16.194C18.8119 16.431 19.1563 16.7208 19.4833 17.0391C19.7667 17.3147 20.0377 17.6086 20.292 17.9276Z" fill="#05A8B3"/>
<path d="M16.3524 16.8962C16.1897 16.7465 16.0247 16.5996 15.859 16.4533C15.5844 16.2116 15.2792 16.0842 15.1775 16.1614C15.115 16.2082 15.051 16.2535 14.9856 16.2969C12.9677 17.6208 10.9854 18.789 8.67542 19.3863C10.0873 20.2077 11.7506 20.6905 13.5381 20.6905C15.6527 20.6912 17.595 20.0201 19.1486 18.9021C18.9168 18.7991 18.6886 18.6894 18.467 18.5702C18.0702 18.3589 17.6917 18.1192 17.3487 17.8253C17.0021 17.5362 16.686 17.2037 16.3524 16.8962Z" fill="#05A8B3"/>
</g>
<defs>
<clipPath id="clip0">
<rect width="26.8256" height="25" fill="white" transform="translate(0.0223389)"/>
</clipPath>
</defs>
</svg>
