<svg viewBox="0 0 25 25" fill="none" xmlns="http://www.w3.org/2000/svg">
<g clip-path="url(#clip0)">
<path d="M12.5 0C6.43652 0 1.39307 2.08496 1.39307 8.12158C1.39307 15.3472 9.0293 25 12.5 25C15.9614 25 23.6069 15.3647 23.6069 8.12158C23.6069 2.08301 18.5605 0 12.5 0V0Z" fill="#575F64"/>
<path d="M23.6069 8.12158C23.6069 15.3647 15.9614 25 12.5 25V0C18.5605 0 23.6069 2.08301 23.6069 8.12158Z" fill="#32393F"/>
<path d="M16.7511 8.80324L14.2238 9.30861C14.362 8.75539 15.2511 5.19533 15.3786 4.6631C15.6095 3.69924 14.403 3.3506 14.027 4.09768C13.9323 4.27834 13.3273 5.20021 12.5001 6.44045C11.254 8.30861 9.50307 10.9004 8.23207 12.772C7.8644 13.3135 8.34047 14.0298 8.98158 13.9019L11.5412 13.3897L10.3205 18.8843C10.1417 19.687 11.2282 20.127 11.6588 19.4268L12.5001 18.0596L17.5182 9.90529C17.8532 9.36135 17.3766 8.67824 16.7511 8.80324Z" fill="#FF641A"/>
<path d="M17.5181 9.90529L12.5 18.0596V6.44045C13.3271 5.20021 13.9321 4.27834 14.0269 4.09768C14.4028 3.3506 15.6094 3.69924 15.3784 4.6631C15.251 5.19533 14.3618 8.75539 14.2236 9.30861L16.751 8.80324C17.3765 8.67824 17.853 9.36135 17.5181 9.90529Z" fill="#DD3400"/>
</g>
<defs>
<clipPath id="clip0">
<rect width="25" height="25" fill="white"/>
</clipPath>
</defs>
</svg>
