<svg width="28" height="25" viewBox="0 0 28 25" fill="none" xmlns="http://www.w3.org/2000/svg">
<g clip-path="url(#clip0)">
<path d="M26.5196 9.51919H26.0407C25.606 7.26584 24.4492 5.19141 22.6752 3.53831C20.3797 1.39883 17.3273 0.220657 14.0809 0.220657C10.8346 0.220657 7.7822 1.39883 5.48669 3.53831C3.69998 5.20342 2.53892 7.29579 2.11158 9.56821H1.64229C1.10505 9.56821 0.668091 9.97543 0.668091 10.4761V13.7754C0.668091 14.2759 1.10505 14.6833 1.64229 14.6833H2.40221C3.0512 16.7837 4.34528 18.6863 6.16475 20.143C6.3295 20.2747 6.57776 20.2574 6.71938 20.1039C6.86101 19.9501 6.84218 19.7188 6.67743 19.5868C6.2067 19.2101 5.77384 18.8011 5.38068 18.3655C5.98198 18.1294 6.59638 17.9346 7.21528 17.775C7.50918 18.2583 7.8389 18.7246 8.20463 19.17C9.00589 20.146 9.91071 21.0047 10.8751 21.7125C10.0738 21.4937 9.29897 21.1931 8.56811 20.8145C8.37818 20.7163 8.13873 20.78 8.03333 20.957C7.92772 21.134 7.99608 21.3572 8.18601 21.4556C9.97906 22.3839 12.0175 22.8747 14.0809 22.8747C17.3273 22.8747 20.3795 21.6965 22.6752 19.557C24.1498 18.183 25.1975 16.5173 25.7591 14.7001H26.5196C27.0568 14.7001 27.4938 14.2929 27.4938 13.7922V10.4271C27.4938 9.9266 27.0568 9.51919 26.5196 9.51919ZM25.2398 9.51919H22.5035C22.4707 9.32922 22.4345 9.13925 22.3923 8.94946C22.1586 7.89794 21.7933 6.89391 21.3023 5.94615C21.3747 5.92765 21.4476 5.90953 21.5196 5.89045C22.0205 5.75694 22.658 5.57536 23.2843 5.32569C24.2623 6.5771 24.9261 8.00342 25.2398 9.51919ZM21.7149 9.56821H17.6503C17.6368 9.38434 17.622 9.20047 17.6046 9.01698C17.5267 8.19682 17.4116 7.40279 17.2635 6.64348C18.3909 6.53437 19.48 6.36367 20.5248 6.13211C21.0231 7.06462 21.3905 8.05682 21.622 9.09824C21.6568 9.25464 21.6869 9.41142 21.7149 9.56821ZM22.1189 4.05653C22.3506 4.27245 22.5706 4.49637 22.7796 4.72697C22.2556 4.92304 21.7284 5.0722 21.3033 5.1855C21.1801 5.2183 21.0561 5.24977 20.9316 5.28067C20.683 4.86525 20.4098 4.46146 20.1105 4.07084C19.3265 3.04773 18.3967 2.15204 17.3351 1.39234C19.1236 1.88787 20.7626 2.79253 22.1189 4.05653ZM15.294 1.01373C16.9644 1.88883 18.3697 3.06032 19.4703 4.49694C19.7102 4.81032 19.9323 5.13285 20.1378 5.46321C19.1662 5.66977 18.1554 5.82293 17.1098 5.92154C16.6544 3.94572 15.9647 2.24379 15.1008 0.996378C15.1652 1.00153 15.2297 1.00725 15.294 1.01373ZM14.0809 0.953844C14.0906 0.953844 14.1 0.954034 14.1096 0.954034C15.0654 2.12954 15.8296 3.88544 16.3218 5.98525C15.4815 6.04171 14.6206 6.06478 13.7408 6.05277C13.1436 6.04476 12.5044 6.0274 11.839 5.98963C12.3313 3.88792 13.0959 2.1303 14.0523 0.954034C14.0619 0.954034 14.0713 0.953844 14.0809 0.953844ZM13.0611 0.996378C12.195 2.24665 11.5042 3.95373 11.0488 5.93528C10.0613 5.85517 9.03024 5.72261 7.99874 5.50364C8.21118 5.15898 8.44163 4.82291 8.69152 4.49675C9.79221 3.06032 11.1974 1.88883 12.8679 1.01354C12.9322 1.00725 12.9966 1.00153 13.0611 0.996378ZM10.8953 6.65893C10.7486 7.41347 10.6346 8.20235 10.5572 9.01698C10.5398 9.20047 10.5251 9.38434 10.5118 9.56821H6.44657C6.4744 9.41142 6.5051 9.25464 6.53989 9.09824C6.76789 8.07208 7.12851 7.09399 7.61561 6.17331C8.72611 6.42165 9.8356 6.56985 10.8953 6.65893ZM6.04297 4.05653C7.39928 2.79253 9.03823 1.88787 10.8268 1.39234C9.76499 2.15204 8.8352 3.04773 8.05134 4.07084C7.74311 4.4731 7.46252 4.88967 7.20812 5.31844C6.59147 5.15917 5.97912 4.96481 5.38006 4.72945C5.58964 4.49809 5.81047 4.2734 6.04297 4.05653ZM4.87721 5.32645C5.52108 5.58985 6.17887 5.80577 6.84055 5.98296C6.35918 6.92004 6.0002 7.91148 5.76954 8.94946C5.7239 9.15546 5.6844 9.36183 5.64981 9.56821H2.91182C3.22127 8.03432 3.88888 6.59102 4.87721 5.32645ZM1.64229 13.9502C1.53894 13.9502 1.45482 13.8718 1.45482 13.7753V10.4759C1.45482 10.3796 1.53894 10.3012 1.64229 10.3012H12.997C13.2144 10.3012 13.3904 10.1372 13.3904 9.93461C13.3904 9.73224 13.2144 9.56802 12.997 9.56802H11.3C11.3122 9.40589 11.3255 9.24358 11.3409 9.08164C11.4189 8.26129 11.5343 7.46955 11.6833 6.71519C12.4009 6.75811 13.0885 6.77718 13.7295 6.78576C13.8847 6.78786 14.0394 6.78901 14.1937 6.78901C14.9698 6.78901 15.7313 6.76192 16.4775 6.70928C16.627 7.46535 16.7428 8.25919 16.821 9.08164C16.8363 9.24358 16.8498 9.40589 16.8621 9.56802H15.453C15.2359 9.56802 15.0596 9.73224 15.0596 9.93461C15.0596 10.1372 15.2359 10.3012 15.453 10.3012H21.5544V13.95H1.64229V13.9502ZM21.4601 14.6832C21.2335 15.4713 20.92 16.2354 20.5223 16.9624C19.4794 16.7315 18.3928 16.5604 17.2673 16.4513C17.3803 15.8781 17.473 15.2872 17.5447 14.6833H21.4601V14.6832ZM16.754 14.6832C16.683 15.2655 16.5918 15.8346 16.481 16.3862C15.5854 16.3229 14.6677 16.2966 13.7295 16.3094C13.0873 16.3179 12.3984 16.337 11.6796 16.3801C11.5695 15.8304 11.4786 15.2634 11.4078 14.6832H16.754ZM4.87966 17.7679C4.14901 16.8295 3.58987 15.7873 3.22291 14.6832H5.89009C6.11604 15.5216 6.43326 16.3359 6.84034 17.1124C6.17948 17.2894 5.52251 17.5049 4.87966 17.7679ZM6.7026 14.6832H10.6166C10.6876 15.2821 10.7797 15.8682 10.8915 16.4368C9.83334 16.5257 8.7257 16.6739 7.61724 16.9214C7.23023 16.2067 6.92487 15.4564 6.7026 14.6832ZM12.864 22.0793C11.3923 21.3066 9.99789 20.1477 8.82947 18.7245C8.53025 18.3603 8.25743 17.9808 8.00938 17.5892C9.03659 17.3718 10.0632 17.24 11.0466 17.16C11.2021 17.8259 11.3865 18.4633 11.599 19.0624C11.9125 19.9454 12.4047 21.1231 13.0666 22.0984C12.9991 22.0928 12.9315 22.0862 12.864 22.0793ZM14.0809 22.1415C14.0713 22.1415 14.0619 22.1411 14.0523 22.1411C13.433 21.3764 12.8439 20.2351 12.346 18.8322C12.1526 18.2873 11.9837 17.709 11.8393 17.1055C12.5046 17.0679 13.1436 17.0504 13.7408 17.0424C14.6206 17.0307 15.4812 17.0538 16.3216 17.1103C16.1773 17.712 16.0087 18.2888 15.8159 18.8322C15.3181 20.2351 14.7289 21.3764 14.1096 22.1411C14.1 22.1413 14.0906 22.1415 14.0809 22.1415ZM15.0944 22.0995C15.7567 21.1241 16.2493 19.9457 16.5627 19.0624C16.7739 18.4675 16.9571 17.8351 17.1118 17.1742C18.1529 17.2724 19.1593 17.4244 20.1267 17.6296C19.8856 18.0069 19.6212 18.3729 19.3324 18.7245C18.1628 20.1491 16.7669 21.3089 15.2938 22.0816C15.2275 22.0881 15.1609 22.094 15.0944 22.0995ZM22.1189 19.0386C20.7485 20.3158 19.0895 21.2259 17.2794 21.7179C18.2465 21.0091 19.1539 20.1485 19.9572 19.17C20.3136 18.7363 20.6353 18.2823 20.9233 17.8124C21.0506 17.844 21.1774 17.8763 21.3033 17.9096C21.728 18.0229 22.2548 18.1721 22.7785 18.368C22.5696 18.5986 22.3506 18.8229 22.1189 19.0386ZM23.283 17.7691C22.6572 17.5198 22.02 17.3382 21.5196 17.2049C21.4476 17.1856 21.3747 17.1677 21.3023 17.1492C21.7159 16.367 22.0379 15.5457 22.2671 14.7001H24.9367C24.5716 15.7974 24.0153 16.8322 23.283 17.7691ZM26.7071 13.7754C26.7071 13.8718 26.6229 13.9502 26.5196 13.9502H22.341V10.3012H26.5196C26.6229 10.3012 26.7071 10.3798 26.7071 10.4761V13.7754Z" fill="#D9D9D9"/>
<path d="M3.64578 13.8348C3.64578 13.8889 3.55839 13.9458 3.45667 13.9458C3.34636 13.9458 3.27063 13.8889 3.27063 13.8348V12.0173C3.27063 11.9522 3.34636 11.9087 3.45667 11.9087C3.55839 11.9087 3.64578 11.9522 3.64578 12.0173V12.8487C3.69797 12.7432 3.82875 12.6429 4.01192 12.6429C4.27921 12.6429 4.51171 12.8922 4.51171 13.1928V13.8346C4.51171 13.9078 4.41593 13.9458 4.32281 13.9458C4.23562 13.9458 4.13677 13.9078 4.13677 13.8346V13.1928C4.13677 13.0709 4.02052 12.949 3.88401 12.949C3.76489 12.949 3.64557 13.0409 3.64557 13.1928V13.8348H3.64578Z" fill="#47CBAC"/>
<path d="M5.33726 13.5069C5.33726 13.6125 5.37799 13.6505 5.50018 13.6505H5.61356C5.72101 13.6505 5.7734 13.7237 5.7734 13.7968C5.7734 13.8727 5.72101 13.9457 5.61356 13.9457H5.50018C5.15143 13.9457 4.96252 13.813 4.96252 13.5069V12.1933C4.96252 12.1282 5.06117 12.0849 5.14856 12.0849C5.24435 12.0849 5.33747 12.1282 5.33747 12.1933V12.6591H5.68048C5.74147 12.6591 5.77627 12.7241 5.77627 12.7865C5.77627 12.8513 5.74147 12.9137 5.68048 12.9137H5.33747V13.5069H5.33726Z" fill="#47CBAC"/>
<path d="M6.52045 13.5069C6.52045 13.6125 6.56098 13.6505 6.68316 13.6505H6.79654C6.90399 13.6505 6.95639 13.7237 6.95639 13.7968C6.95639 13.8727 6.90399 13.9457 6.79654 13.9457H6.68316C6.33441 13.9457 6.14551 13.813 6.14551 13.5069V12.1933C6.14551 12.1282 6.24436 12.0849 6.33155 12.0849C6.42753 12.0849 6.52045 12.1282 6.52045 12.1933V12.6591H6.86347C6.92446 12.6591 6.95925 12.7241 6.95925 12.7865C6.95925 12.8513 6.92446 12.9137 6.86347 12.9137H6.52045V13.5069Z" fill="#47CBAC"/>
<path d="M7.68597 12.7674V12.8487C7.75269 12.7432 7.89227 12.6429 8.07831 12.6429C8.36893 12.6429 8.59857 12.8921 8.59857 13.1927V13.4148C8.59857 13.7047 8.36034 13.9702 8.08998 13.9702C7.9156 13.9702 7.76435 13.8672 7.7093 13.7562V14.4333C7.7093 14.4901 7.62211 14.5443 7.51732 14.5443C7.40987 14.5443 7.33435 14.4901 7.33435 14.4333V12.7674C7.33435 12.7024 7.41274 12.6591 7.51159 12.6591C7.61331 12.6591 7.68597 12.7024 7.68597 12.7674ZM8.22362 13.1927C8.22362 13.0709 8.10451 12.949 7.95919 12.949C7.83721 12.949 7.7093 13.0409 7.7093 13.1927V13.4636C7.7093 13.5204 7.81675 13.664 7.96492 13.664C8.10164 13.664 8.22362 13.5395 8.22362 13.4148V13.1927Z" fill="#47CBAC"/>
<path d="M9.66546 13.5881C9.66546 13.3499 8.97656 13.4989 8.97656 13.0464C8.97656 12.8542 9.10734 12.6429 9.49682 12.6429C9.73238 12.6429 9.95895 12.7188 9.95895 12.8189C9.95895 12.8677 9.90962 12.9869 9.82244 12.9869C9.75265 12.9869 9.66259 12.9084 9.50275 12.9084C9.35744 12.9084 9.29931 12.9761 9.29931 13.0302C9.29931 13.228 9.99681 13.0926 9.99681 13.5746C9.99681 13.8159 9.80504 13.9702 9.46202 13.9702C9.16567 13.9702 8.93604 13.8563 8.93604 13.7371C8.93604 13.6803 8.98822 13.5828 9.06088 13.5828C9.1452 13.5828 9.20926 13.7047 9.45343 13.7047C9.62473 13.7047 9.66546 13.6423 9.66546 13.5881Z" fill="#47CBAC"/>
<path d="M10.7672 12.987C10.7672 13.0844 10.6772 13.171 10.5726 13.171C10.4592 13.171 10.3749 13.0844 10.3749 12.987C10.3749 12.8866 10.4592 12.8027 10.5726 12.8027C10.6772 12.8027 10.7672 12.8866 10.7672 12.987ZM10.7672 13.7777C10.7672 13.8754 10.6772 13.962 10.5726 13.962C10.4592 13.962 10.3749 13.8754 10.3749 13.7777C10.3749 13.6776 10.4592 13.5937 10.5726 13.5937C10.6772 13.5937 10.7672 13.6776 10.7672 13.7777Z" fill="#47CBAC"/>
<path d="M12.4268 11.9793C12.4268 11.9955 12.4239 12.0117 12.4151 12.0279L11.3717 13.9946C11.3513 14.0323 11.3048 14.0541 11.2584 14.0541C11.174 14.0541 11.1188 13.9919 11.1188 13.9349C11.1188 13.9187 11.1247 13.9024 11.1333 13.8889L12.1767 11.9142C12.1971 11.8763 12.2379 11.8574 12.2815 11.8574C12.3513 11.8574 12.4268 11.906 12.4268 11.9793Z" fill="#47CBAC"/>
<path d="M13.3047 11.9793C13.3047 11.9955 13.3016 12.0117 13.293 12.0279L12.2495 13.9946C12.2292 14.0323 12.1827 14.0541 12.1363 14.0541C12.052 14.0541 11.9967 13.9919 11.9967 13.9349C11.9967 13.9187 12.0024 13.9024 12.0112 13.8889L13.0546 11.9142C13.0751 11.8763 13.1156 11.8574 13.1594 11.8574C13.229 11.8574 13.3047 11.906 13.3047 11.9793Z" fill="#47CBAC"/>
<path d="M14.9851 13.9132C14.9647 13.9593 14.9008 13.9755 14.8369 13.9755C14.7643 13.9755 14.7002 13.9538 14.6828 13.9132L14.4589 13.3226L14.2381 13.9105C14.2207 13.9538 14.1509 13.9755 14.0783 13.9755C14.0173 13.9755 13.9532 13.9593 13.933 13.9105L13.4854 12.8407C13.4737 12.8189 13.4708 12.8027 13.4708 12.7892C13.4708 12.7052 13.6161 12.6455 13.715 12.6455C13.7643 12.6455 13.8079 12.6644 13.8224 12.7024L14.1131 13.4716L14.331 12.8025C14.3515 12.7403 14.4008 12.7321 14.4589 12.7321C14.5142 12.7321 14.5666 12.7403 14.5868 12.8025L14.8019 13.4743L15.0954 12.7024C15.11 12.6671 15.1507 12.6455 15.2031 12.6455C15.296 12.6455 15.4444 12.705 15.4444 12.7918C15.4444 12.808 15.4415 12.8269 15.4327 12.8407L14.9851 13.9132Z" fill="#47CBAC"/>
<path d="M17.1736 13.9132C17.1534 13.9593 17.0895 13.9755 17.0254 13.9755C16.9528 13.9755 16.8889 13.9538 16.8713 13.9132L16.6476 13.3226L16.4266 13.9105C16.4092 13.9538 16.3396 13.9755 16.2667 13.9755C16.2058 13.9755 16.1419 13.9593 16.1214 13.9105L15.6738 12.8407C15.6622 12.8189 15.6593 12.8027 15.6593 12.7892C15.6593 12.7052 15.8046 12.6455 15.9035 12.6455C15.9528 12.6455 15.9964 12.6644 16.0111 12.7024L16.3017 13.4716L16.5197 12.8025C16.54 12.7403 16.5895 12.7321 16.6476 12.7321C16.7029 12.7321 16.7551 12.7403 16.7753 12.8025L16.9904 13.4743L17.2841 12.7024C17.2987 12.6671 17.3394 12.6455 17.3916 12.6455C17.4847 12.6455 17.6329 12.705 17.6329 12.7918C17.6329 12.808 17.63 12.8269 17.6212 12.8407L17.1736 13.9132Z" fill="#47CBAC"/>
<path d="M19.3625 13.9132C19.3422 13.9593 19.2784 13.9755 19.2143 13.9755C19.1416 13.9755 19.0778 13.9538 19.0602 13.9132L18.8365 13.3226L18.6154 13.9105C18.598 13.9538 18.5282 13.9755 18.4556 13.9755C18.3946 13.9755 18.3307 13.9593 18.3103 13.9105L17.8627 12.8407C17.851 12.8189 17.8481 12.8027 17.8481 12.7892C17.8481 12.7052 17.9935 12.6455 18.0923 12.6455C18.1416 12.6455 18.1852 12.6644 18.2 12.7024L18.4906 13.4716L18.7086 12.8025C18.7288 12.7403 18.7781 12.7321 18.8363 12.7321C18.8915 12.7321 18.9439 12.7403 18.9642 12.8025L19.1793 13.4743L19.473 12.7024C19.4873 12.6671 19.5282 12.6455 19.5804 12.6455C19.6734 12.6455 19.8217 12.705 19.8217 12.7918C19.8217 12.808 19.8189 12.8269 19.8101 12.8407L19.3625 13.9132Z" fill="#47CBAC"/>
<path d="M25.6682 12.3438L25.2439 12.2864L25.0542 11.928C24.9539 11.7388 24.7513 11.6215 24.5249 11.6215C24.2986 11.6215 24.0957 11.739 23.9957 11.928L23.8059 12.2864L23.3817 12.3438C23.1576 12.3741 22.9752 12.5176 22.9052 12.718C22.8352 12.9187 22.8925 13.1348 23.0546 13.282L23.3616 13.5609L23.2892 13.9547C23.2507 14.1625 23.3407 14.3686 23.5239 14.4926C23.7069 14.6166 23.9449 14.6328 24.1455 14.5346L24.5249 14.3486L24.9044 14.5346C24.9915 14.5771 25.0857 14.5983 25.1796 14.5983C25.3014 14.5983 25.4226 14.5626 25.5259 14.4926C25.7089 14.3686 25.7989 14.1625 25.7607 13.9547L25.6882 13.5609L25.9952 13.282C26.1573 13.1348 26.2144 12.9187 26.1446 12.718C26.0746 12.5176 25.8921 12.3741 25.6682 12.3438ZM25.065 13.1031C24.9261 13.2296 24.8626 13.4115 24.8954 13.5899L24.9181 13.7129L24.7996 13.6549C24.6277 13.5706 24.4224 13.5706 24.2503 13.6549L24.1318 13.7129L24.1543 13.5899C24.1872 13.4115 24.1238 13.2296 23.9846 13.1031L23.8888 13.0159L24.0212 12.998C24.2134 12.9721 24.3796 12.8595 24.4658 12.6972L24.5249 12.5853L24.5843 12.6972C24.6702 12.8595 24.8364 12.9721 25.0286 12.998L25.161 13.0159L25.065 13.1031Z" fill="#47CBAC"/>
</g>
<defs>
<clipPath id="clip0">
<rect width="26.8256" height="25" fill="white" transform="translate(0.721313)"/>
</clipPath>
</defs>
</svg>
