<svg viewBox="0 0 48 33" fill="none" xmlns="http://www.w3.org/2000/svg">
<path d="M10.0811 27.0425L9.60352 27.9829L9.52148 27.936C9.52344 27.9165 9.52441 27.9009 9.52441 27.8892C9.52441 27.8228 9.46777 27.7515 9.35449 27.6753C9.00684 27.4331 8.59863 27.312 8.12988 27.312C7.92285 27.312 7.74023 27.3374 7.58203 27.3882C7.4668 27.4272 7.37305 27.4858 7.30078 27.564C7.23047 27.6421 7.19531 27.7271 7.19531 27.8188C7.19531 27.9692 7.28613 28.0718 7.46777 28.1265C7.56152 28.1538 7.7627 28.1831 8.07129 28.2144L8.53125 28.2612C8.80469 28.2905 9.02539 28.3306 9.19336 28.3813C9.36328 28.4321 9.51367 28.5034 9.64453 28.5952C9.77734 28.6909 9.88184 28.8169 9.95801 28.9731C10.0361 29.1294 10.0752 29.2964 10.0752 29.4741C10.0752 29.7554 9.98438 30.0054 9.80273 30.2241C9.63867 30.4233 9.38379 30.5708 9.03809 30.6665C8.78027 30.7388 8.50391 30.7749 8.20898 30.7749C7.67969 30.7749 7.15723 30.6479 6.6416 30.394C6.53223 30.3433 6.4668 30.3179 6.44531 30.3179C6.41992 30.3179 6.37988 30.3394 6.3252 30.3823L6.24023 30.3384L6.67383 29.3569L6.75879 29.3979C6.75879 29.4155 6.75879 29.4282 6.75879 29.436C6.75879 29.5239 6.80078 29.605 6.88477 29.6792C7.01172 29.7925 7.20801 29.8901 7.47363 29.9722C7.73926 30.0542 7.99121 30.0952 8.22949 30.0952C8.48926 30.0952 8.71094 30.0513 8.89453 29.9634C8.99609 29.9146 9.07715 29.8501 9.1377 29.77C9.19824 29.688 9.22852 29.603 9.22852 29.5151C9.22852 29.3823 9.15723 29.2876 9.01465 29.231C8.91504 29.1919 8.71387 29.1558 8.41113 29.1226L7.95996 29.0757C7.65723 29.0444 7.44336 29.0151 7.31836 28.9878C7.19336 28.9585 7.06836 28.9126 6.94336 28.8501C6.76562 28.7622 6.62598 28.6304 6.52441 28.4546C6.43262 28.2964 6.38672 28.1147 6.38672 27.9097C6.38672 27.5718 6.50293 27.2925 6.73535 27.0718C7.04004 26.7808 7.49707 26.6353 8.10645 26.6353C8.3623 26.6353 8.60059 26.6616 8.82129 26.7144C9.04199 26.7651 9.31738 26.8599 9.64746 26.9985C9.76074 27.0435 9.83008 27.0659 9.85547 27.0659C9.89648 27.0659 9.94434 27.0435 9.99902 26.9985L10.0811 27.0425ZM11.584 27.7222V30.4058C11.584 30.4663 11.5977 30.5132 11.625 30.5464C11.6523 30.5776 11.7012 30.604 11.7715 30.6255V30.7046H10.6113V30.6226C10.6797 30.605 10.7275 30.5796 10.7549 30.5464C10.7842 30.5132 10.7988 30.4663 10.7988 30.4058V27.7222C10.7988 27.6616 10.7852 27.6157 10.7578 27.5845C10.7305 27.5532 10.6816 27.5269 10.6113 27.5054V27.4233H11.7715V27.5054C11.7012 27.5249 11.6523 27.5513 11.625 27.5845C11.5977 27.6157 11.584 27.6616 11.584 27.7222ZM13.2539 28.5425V30.4058C13.2539 30.4663 13.2676 30.5132 13.2949 30.5464C13.3242 30.5796 13.373 30.606 13.4414 30.6255V30.7046H12.3516V30.6226C12.4199 30.605 12.4678 30.5796 12.4951 30.5464C12.5244 30.5132 12.5391 30.4663 12.5391 30.4058V27.7222C12.5391 27.6616 12.5254 27.6157 12.498 27.5845C12.4707 27.5532 12.4219 27.5269 12.3516 27.5054V27.4233H13.6113V27.5054C13.5254 27.5269 13.4824 27.5649 13.4824 27.6196C13.4824 27.6665 13.5137 27.7212 13.5762 27.7837L15.334 29.5298V27.7222C15.334 27.6616 15.3203 27.6157 15.293 27.5845C15.2656 27.5513 15.2168 27.5249 15.1465 27.5054V27.4233H16.2363V27.5054C16.166 27.5249 16.1172 27.5513 16.0898 27.5845C16.0625 27.6157 16.0488 27.6616 16.0488 27.7222V30.4058C16.0488 30.4663 16.0625 30.5132 16.0898 30.5464C16.1172 30.5776 16.166 30.604 16.2363 30.6255V30.7046H15.0615V30.6255C15.1475 30.6079 15.1904 30.5718 15.1904 30.5171C15.1904 30.4897 15.1787 30.4614 15.1553 30.4321C15.1318 30.4028 15.0781 30.3452 14.9941 30.2593L13.2539 28.5425ZM20.0244 29.5298L20.5195 30.2505L20.4521 30.3003C20.4053 30.2671 20.3682 30.2505 20.3408 30.2505C20.3076 30.2505 20.2305 30.2866 20.1094 30.3589C19.8418 30.5151 19.6055 30.6235 19.4004 30.6841C19.1953 30.7446 18.959 30.7749 18.6914 30.7749C18.1562 30.7749 17.7197 30.647 17.3818 30.3911C17.1904 30.2446 17.0381 30.061 16.9248 29.8403C16.8037 29.6021 16.7432 29.3433 16.7432 29.064C16.7432 28.6792 16.8545 28.3394 17.0771 28.0444C17.4268 27.5835 17.9629 27.353 18.6855 27.353C18.9531 27.353 19.1904 27.3833 19.3975 27.4438C19.6064 27.5044 19.8438 27.6128 20.1094 27.769C20.2305 27.8413 20.3076 27.8774 20.3408 27.8774C20.3682 27.8774 20.4053 27.8608 20.4521 27.8276L20.5195 27.8804L20.0244 28.5981L19.96 28.5513C19.9619 28.5278 19.9639 28.5132 19.9658 28.5073C19.9678 28.4897 19.9688 28.4771 19.9688 28.4692C19.9688 28.3735 19.8369 28.2651 19.5732 28.144C19.3232 28.0288 19.0713 27.9712 18.8174 27.9712C18.4619 27.9712 18.1689 28.0649 17.9385 28.2524C17.6748 28.4634 17.543 28.7339 17.543 29.064C17.543 29.396 17.6748 29.6675 17.9385 29.8784C18.1709 30.064 18.4639 30.1567 18.8174 30.1567C19.0947 30.1567 19.3711 30.0874 19.6465 29.9487C19.8613 29.8394 19.9688 29.7437 19.9688 29.6616C19.9688 29.6577 19.9658 29.6304 19.96 29.5796L20.0244 29.5298ZM22.8457 27.353C23.3672 27.353 23.8018 27.4858 24.1494 27.7515C24.5654 28.0718 24.7734 28.5181 24.7734 29.0903C24.7734 29.6274 24.5654 30.0562 24.1494 30.3765C23.8057 30.6421 23.373 30.7749 22.8516 30.7749C22.3301 30.7749 21.8975 30.6421 21.5537 30.3765C21.1357 30.0562 20.9268 29.6187 20.9268 29.064C20.9268 28.5034 21.1357 28.0659 21.5537 27.7515C21.8994 27.4917 22.3301 27.3589 22.8457 27.353ZM22.8486 27.9741C22.5107 27.9741 22.2354 28.0825 22.0225 28.2993C21.8252 28.5024 21.7266 28.7573 21.7266 29.064C21.7266 29.3687 21.8252 29.6226 22.0225 29.8257C22.2354 30.0444 22.5117 30.1538 22.8516 30.1538C23.1895 30.1538 23.4648 30.0444 23.6777 29.8257C23.875 29.6245 23.9736 29.3755 23.9736 29.0786C23.9736 28.7563 23.875 28.4966 23.6777 28.2993C23.4629 28.0864 23.1865 27.978 22.8486 27.9741Z" fill="#BFB4B2"/>
<path d="M30.0811 27.0425L29.6035 27.9829L29.5215 27.936C29.5234 27.9165 29.5244 27.9009 29.5244 27.8892C29.5244 27.8228 29.4678 27.7515 29.3545 27.6753C29.0068 27.4331 28.5986 27.312 28.1299 27.312C27.9229 27.312 27.7402 27.3374 27.582 27.3882C27.4668 27.4272 27.373 27.4858 27.3008 27.564C27.2305 27.6421 27.1953 27.7271 27.1953 27.8188C27.1953 27.9692 27.2861 28.0718 27.4678 28.1265C27.5615 28.1538 27.7627 28.1831 28.0713 28.2144L28.5312 28.2612C28.8047 28.2905 29.0254 28.3306 29.1934 28.3813C29.3633 28.4321 29.5137 28.5034 29.6445 28.5952C29.7773 28.6909 29.8818 28.8169 29.958 28.9731C30.0361 29.1294 30.0752 29.2964 30.0752 29.4741C30.0752 29.7554 29.9844 30.0054 29.8027 30.2241C29.6387 30.4233 29.3838 30.5708 29.0381 30.6665C28.7803 30.7388 28.5039 30.7749 28.209 30.7749C27.6797 30.7749 27.1572 30.6479 26.6416 30.394C26.5322 30.3433 26.4668 30.3179 26.4453 30.3179C26.4199 30.3179 26.3799 30.3394 26.3252 30.3823L26.2402 30.3384L26.6738 29.3569L26.7588 29.3979C26.7588 29.4155 26.7588 29.4282 26.7588 29.436C26.7588 29.5239 26.8008 29.605 26.8848 29.6792C27.0117 29.7925 27.208 29.8901 27.4736 29.9722C27.7393 30.0542 27.9912 30.0952 28.2295 30.0952C28.4893 30.0952 28.7109 30.0513 28.8945 29.9634C28.9961 29.9146 29.0771 29.8501 29.1377 29.77C29.1982 29.688 29.2285 29.603 29.2285 29.5151C29.2285 29.3823 29.1572 29.2876 29.0146 29.231C28.915 29.1919 28.7139 29.1558 28.4111 29.1226L27.96 29.0757C27.6572 29.0444 27.4434 29.0151 27.3184 28.9878C27.1934 28.9585 27.0684 28.9126 26.9434 28.8501C26.7656 28.7622 26.626 28.6304 26.5244 28.4546C26.4326 28.2964 26.3867 28.1147 26.3867 27.9097C26.3867 27.5718 26.5029 27.2925 26.7354 27.0718C27.04 26.7808 27.4971 26.6353 28.1064 26.6353C28.3623 26.6353 28.6006 26.6616 28.8213 26.7144C29.042 26.7651 29.3174 26.8599 29.6475 26.9985C29.7607 27.0435 29.8301 27.0659 29.8555 27.0659C29.8965 27.0659 29.9443 27.0435 29.999 26.9985L30.0811 27.0425ZM32.457 27.353C32.9785 27.353 33.4131 27.4858 33.7607 27.7515C34.1768 28.0718 34.3848 28.5181 34.3848 29.0903C34.3848 29.6274 34.1768 30.0562 33.7607 30.3765C33.417 30.6421 32.9844 30.7749 32.4629 30.7749C31.9414 30.7749 31.5088 30.6421 31.165 30.3765C30.7471 30.0562 30.5381 29.6187 30.5381 29.064C30.5381 28.5034 30.7471 28.0659 31.165 27.7515C31.5107 27.4917 31.9414 27.3589 32.457 27.353ZM32.46 27.9741C32.1221 27.9741 31.8467 28.0825 31.6338 28.2993C31.4365 28.5024 31.3379 28.7573 31.3379 29.064C31.3379 29.3687 31.4365 29.6226 31.6338 29.8257C31.8467 30.0444 32.123 30.1538 32.4629 30.1538C32.8008 30.1538 33.0762 30.0444 33.2891 29.8257C33.4863 29.6245 33.585 29.3755 33.585 29.0786C33.585 28.7563 33.4863 28.4966 33.2891 28.2993C33.0742 28.0864 32.7979 27.978 32.46 27.9741ZM35.8613 29.3101V30.4058C35.8613 30.4663 35.875 30.5132 35.9023 30.5464C35.9297 30.5776 35.9785 30.604 36.0488 30.6255V30.7046H34.8887V30.6226C34.957 30.605 35.0049 30.5796 35.0322 30.5464C35.0615 30.5132 35.0762 30.4663 35.0762 30.4058V27.7222C35.0762 27.6616 35.0625 27.6157 35.0352 27.5845C35.0078 27.5532 34.959 27.5269 34.8887 27.5054V27.4233H37.8301C37.8926 27.4233 37.9395 27.4097 37.9707 27.3823C38.0039 27.355 38.0303 27.3062 38.0498 27.2358H38.1289V28.2085H38.0498C38.0303 28.1382 38.0039 28.0894 37.9707 28.062C37.9395 28.0327 37.8926 28.0181 37.8301 28.0181H35.8613V28.7388H37.0977C37.1602 28.7388 37.207 28.7251 37.2383 28.6978C37.2695 28.6704 37.2959 28.6216 37.3174 28.5513H37.3965V29.5005H37.3174C37.2979 29.4302 37.2715 29.3813 37.2383 29.354C37.207 29.3247 37.1602 29.3101 37.0977 29.3101H35.8613ZM40.4785 28.0181V30.4058C40.4785 30.4663 40.4922 30.5132 40.5195 30.5464C40.5469 30.5776 40.5957 30.604 40.666 30.6255V30.7046H39.5059V30.6226C39.5742 30.605 39.6221 30.5796 39.6494 30.5464C39.6787 30.5132 39.6934 30.4663 39.6934 30.4058V28.0181H38.7266C38.6641 28.0181 38.6162 28.0327 38.583 28.062C38.5518 28.0894 38.5264 28.1382 38.5068 28.2085H38.4277V27.2358H38.5098C38.5273 27.3042 38.5518 27.353 38.583 27.3823C38.6162 27.4097 38.6641 27.4233 38.7266 27.4233H41.4453C41.5078 27.4233 41.5547 27.4097 41.5859 27.3823C41.6191 27.355 41.6455 27.3062 41.665 27.2358H41.7441V28.2085H41.665C41.6455 28.1382 41.6191 28.0894 41.5859 28.062C41.5547 28.0327 41.5078 28.0181 41.4453 28.0181H40.4785Z" fill="#01AEF2"/>
<rect width="3.8156" height="24.1391" transform="matrix(-0.927605 -0.373562 0.4025 -0.91542 20.8199 23.6591)" fill="#C4C4C4"/>
<rect width="3.75837" height="15.0335" transform="matrix(0.722457 0.691415 -0.722458 0.691415 10.8613 1.61694)" fill="#47CBAC"/>
<rect width="3.73863" height="14.9545" transform="matrix(-0.718947 0.695065 0.718947 0.695065 37.248 1.61694)" fill="#FF6337"/>
<rect width="3.75837" height="3.73879" transform="matrix(0.722457 0.691416 -0.722458 0.691415 2.70135 9.42627)" fill="#05A8B3"/>
<rect width="3.73864" height="3.71916" transform="matrix(-0.718947 0.695065 0.718947 0.695065 45.3257 9.42627)" fill="#05A8B3"/>
<rect width="3.75837" height="3.72745" transform="matrix(0.722457 0.691416 -0.722458 0.691415 2.69287 9.43433)" fill="#C4C4C4"/>
<rect width="3.73864" height="3.70787" transform="matrix(-0.718947 0.695065 0.718947 0.695065 45.3342 9.43433)" fill="#C4C4C4"/>
<path d="M13.5768 19.807L10.8615 22.4056L0.000477758 12.0112L2.71574 9.41263L13.5768 19.807Z" fill="#01AEF2"/>
<path d="M34.5602 19.807L37.2481 22.4056L47.9996 12.0112L45.3117 9.41263L34.5602 19.807Z" fill="#BFB4B2"/>
<rect width="3.75837" height="3.77835" transform="matrix(0.722457 0.691415 -0.722458 0.691415 2.73004 9.39893)" fill="#05A8B3"/>
<rect width="3.73863" height="3.75851" transform="matrix(-0.718947 0.695065 0.718947 0.695065 45.2978 9.39893)" fill="#C84C2B"/>
</svg>
