<svg viewBox="0 0 25 25" fill="none" xmlns="http://www.w3.org/2000/svg">
<g clip-path="url(#clip0)">
<path d="M3.92572 14.3731L0 10.4472L3.30171 7.14556L7.44583 5.97568L9.88449 8.41439L3.92572 14.3731Z" fill="#C3DAFD"/>
<path d="M14.5484 24.9958L10.6226 21.0699L16.5811 15.1114L19.0239 17.5539L17.8499 21.6943L14.5484 24.9958Z" fill="#A1B8D8"/>
<path d="M0.0258789 23.9313L5.18695 18.7703L6.2209 19.8042L1.05983 24.9653L0.0258789 23.9313Z" fill="#ECC443"/>
<path d="M0.548828 24.4521L5.7099 19.291L6.22179 19.8029L1.06071 24.964L0.548828 24.4521Z" fill="#E39069"/>
<path d="M4.57349 23.5761L7.28413 20.8655L8.31812 21.8995L5.60747 24.6101L4.57349 23.5761Z" fill="#E39069"/>
<path d="M0.381592 19.3831L3.0921 16.6725L4.12605 17.7065L1.41554 20.417L0.381592 19.3831Z" fill="#ECC443"/>
<path d="M12.2073 20.1803L4.82347 12.7962L2.89558 13.3429L1.65454 16.2681L8.67536 23.289L11.6607 22.108L12.2073 20.1803Z" fill="#2B4CA1"/>
<path d="M8.32117 16.6871C7.89729 17.111 5.20645 19.8019 5.19727 19.811C5.51718 20.1309 8.49141 23.1051 8.67532 23.289L11.6607 22.108L12.0108 20.3767L8.32117 16.6871Z" fill="#213B82"/>
<path d="M23.3304 8.53133C25.3027 4.07048 24.9571 0.46501 25 0.00703774C24.7303 0.0607071 16.713 -0.70214 10.1752 6.06181L2.89478 13.3421L11.66 22.1072L18.94 14.8273C20.7717 13.0617 22.2899 10.8849 23.3304 8.53133Z" fill="#E4F3FF"/>
<path d="M23.3305 8.53134C25.3028 4.07049 24.9571 0.465021 25.0001 0.00704956C24.9997 0.0070984 24.999 0.0070984 24.9987 0.00719606L7.2793 17.7265L11.6601 22.1072L18.9401 14.8273C20.7718 13.0617 22.2899 10.8849 23.3305 8.53134Z" fill="#C3DAFD"/>
<path d="M13.2296 11.7752C11.1529 9.6985 12.5967 6.07985 15.589 6.07794C18.5589 6.07575 20.0393 9.68663 17.9483 11.7776C16.6481 13.0777 14.5313 13.0767 13.2296 11.7752Z" fill="#84D9F3"/>
<path d="M17.9524 7.05594L13.2314 11.7768C14.5333 13.0767 16.6488 13.0772 17.9485 11.7776C19.3555 10.3706 19.1453 8.27539 17.9524 7.05594Z" fill="#77B0FB"/>
</g>
<defs>
<clipPath id="clip0">
<rect width="25" height="25" fill="white"/>
</clipPath>
</defs>
</svg>
