<svg viewBox="0 0 25 25" fill="none" xmlns="http://www.w3.org/2000/svg">
<g clip-path="url(#clip0)">
<path d="M10.7069 3.45215C11.4021 3.48838 12.0293 3.77886 12.5 4.23145V0H1.72412C0.771973 0 0 0.771973 0 1.72412V12.5H4.23105C3.77891 12.9707 3.48794 13.5979 3.45176 14.2931C3.37114 15.8496 4.65132 17.2194 6.20996 17.241C7.77593 17.2629 9.05176 16.0004 9.05176 14.4397C9.05176 13.6862 8.75264 13.0035 8.26899 12.5H12.5V8.26899C11.9965 8.75264 11.3138 9.05176 10.5604 9.05176C8.99956 9.05176 7.73706 7.77588 7.75908 6.2104C7.78062 4.65171 9.15044 3.37153 10.7069 3.45215Z" fill="#212121"/>
<path d="M3.45215 14.2931C3.48838 13.5979 3.77886 12.9707 4.23145 12.5H0V23.2759C0 24.228 0.771973 25 1.72412 25H12.5V20.7689C12.9707 21.2211 13.5978 21.5121 14.2931 21.5482C15.8496 21.6289 17.2194 20.3487 17.241 18.79C17.2629 17.2241 16.0004 15.9482 14.4397 15.9482C13.6862 15.9482 13.0035 16.2474 12.5 16.731V12.5H8.26899C8.75264 13.0035 9.05176 13.6862 9.05176 14.4396C9.05176 16.0004 7.77588 17.2629 6.2104 17.2409C4.65171 17.2194 3.37153 15.8496 3.45215 14.2931Z" fill="#01AEF2"/>
<path d="M14.2931 21.5479C13.5979 21.5117 12.9707 21.2212 12.5 20.7686V25H23.2759C24.228 25 25 24.2281 25 23.2759V12.5H20.7689C21.2211 12.0293 21.5121 11.4022 21.5482 10.7069C21.6289 9.15048 20.3487 7.78065 18.79 7.75907C17.2241 7.7371 15.9482 8.9996 15.9482 10.5603C15.9482 11.3138 16.2474 11.9966 16.731 12.5H12.5V16.731C13.0035 16.2474 13.6862 15.9483 14.4396 15.9483C16.0004 15.9483 17.2629 17.2242 17.2409 18.7896C17.2194 20.3483 15.8496 21.6285 14.2931 21.5479Z" fill="#DEDEDE"/>
<path d="M21.5479 10.7069C21.5117 11.4021 21.2212 12.0293 20.7686 12.5H25V1.72412C25 0.771973 24.2281 0 23.2759 0H12.5V4.23105C12.0293 3.77891 11.4022 3.48794 10.7069 3.45176C9.15048 3.37114 7.78065 4.65132 7.75907 6.20996C7.7371 7.77593 8.9996 9.05176 10.5603 9.05176C11.3138 9.05176 11.9966 8.75264 12.5 8.26899V12.5H16.731C16.2474 11.9965 15.9483 11.3138 15.9483 10.5604C15.9483 8.99956 17.2242 7.73706 18.7896 7.75908C20.3483 7.78062 21.6285 9.15044 21.5479 10.7069Z" fill="#828282"/>
</g>
<defs>
<clipPath id="clip0">
<rect width="25" height="25" fill="white"/>
</clipPath>
</defs>
</svg>
