<svg width="28" height="25" viewBox="0 0 28 25" fill="none" xmlns="http://www.w3.org/2000/svg">
<g clip-path="url(#clip0)">
<path d="M27.5469 15.919C27.5469 12.8167 25.6372 10.048 22.777 8.70117C22.6882 14.6494 17.5135 19.472 11.1309 19.5547C12.576 22.2203 15.5469 24 18.8757 24C20.4365 24 21.9543 23.6126 23.2879 22.8766L27.509 23.9647L26.3414 20.0308C27.1312 18.788 27.5469 17.3735 27.5469 15.919Z" fill="#DBDBDB"/>
<path d="M21.377 9.5C21.377 4.81301 17.1853 1 12.0327 1C6.88021 1 2.68848 4.81301 2.68848 9.5C2.68848 11.0275 3.13545 12.5148 3.98422 13.8205L2.72283 17.9686L7.28312 16.8213C8.71852 17.5934 10.3535 18 12.0327 18C17.1853 18 21.377 14.187 21.377 9.5ZM10.5988 7.52174H9.16493C9.16493 6.08322 10.4513 4.91304 12.0327 4.91304C13.6141 4.91304 14.9005 6.08322 14.9005 7.52174C14.9005 8.25187 14.5607 8.95363 13.9679 9.44684L12.7497 10.4611V11.4783H11.3158V9.88672L12.9999 8.48455C13.3008 8.23404 13.4666 7.89215 13.4666 7.52174C13.4666 6.80248 12.8234 6.21739 12.0327 6.21739C11.242 6.21739 10.5988 6.80248 10.5988 7.52174ZM11.3158 12.7826H12.7497V14.087H11.3158V12.7826Z" fill="#DBDBDB"/>
</g>
<defs>
<clipPath id="clip0">
<rect width="26.8256" height="25" fill="white" transform="translate(0.721313)"/>
</clipPath>
</defs>
</svg>
