<svg viewBox="0 0 33 19" fill="none" xmlns="http://www.w3.org/2000/svg">
<path d="M30.0939 17.9647H9.22021C8.21339 17.9647 7.39722 17.1927 7.39722 16.2403V4.14778C7.39722 3.19544 8.21339 2.42343 9.22021 2.42343H30.0939C31.1008 2.42343 31.9169 3.19544 31.9169 4.14778V16.2403C31.9169 17.1926 31.1008 17.9647 30.0939 17.9647Z" fill="#46738C"/>
<path d="M15.3549 11.5538V10.9582H14.7253C14.5435 10.9582 14.4202 10.8047 14.4202 10.5714C14.4202 10.3503 14.5435 10.1784 14.7253 10.1784H15.3549V9.58893C15.3549 9.44157 15.5367 9.29422 15.7704 9.29422C16.0171 9.29422 16.1794 9.44157 16.1794 9.58893V10.1784H16.8026C16.9583 10.1784 17.1141 10.3503 17.1141 10.5714C17.1141 10.8047 16.9583 10.9582 16.8026 10.9582H16.1794V11.5538C16.1794 11.7257 16.0171 11.8424 15.7704 11.8424C15.5367 11.8424 15.3549 11.7257 15.3549 11.5538Z" fill="white"/>
<path d="M17.4191 11.474L18.1526 10.553L17.4905 9.71787C17.4645 9.68721 17.4256 9.62576 17.4256 9.56436C17.4256 9.34946 17.8476 9.08542 18.1072 9.08542C18.1461 9.08542 18.263 9.09158 18.3214 9.18369L18.8408 9.98807L19.3667 9.18985C19.4186 9.11005 19.5225 9.08548 19.5939 9.08548C19.8276 9.08548 20.2625 9.34958 20.2625 9.56442C20.2625 9.61356 20.2431 9.65654 20.1976 9.71793L19.529 10.5591L20.269 11.474C20.2949 11.5047 20.3274 11.5723 20.3274 11.6337C20.3274 11.8364 19.9314 12.1066 19.6653 12.1066C19.5874 12.1066 19.49 12.082 19.4381 12.0083L18.8409 11.1609L18.2502 12.0083C18.1982 12.0758 18.0814 12.1066 18.0099 12.1066C17.8022 12.1066 17.3608 11.8548 17.3608 11.6337C17.3606 11.5784 17.3866 11.517 17.4191 11.474Z" fill="white"/>
<path d="M21.0544 9.5766H22.7422C22.8979 9.5766 23.0537 9.74852 23.0537 9.96958C23.0537 10.203 22.8979 10.3565 22.7422 10.3565H21.0544C20.8726 10.3565 20.7493 10.203 20.7493 9.96958C20.7493 9.74858 20.8726 9.5766 21.0544 9.5766ZM21.0544 10.8231H22.7422C22.8979 10.8231 23.0537 10.995 23.0537 11.2161C23.0537 11.4495 22.8979 11.603 22.7422 11.603H21.0544C20.8726 11.603 20.7493 11.4495 20.7493 11.2161C20.7493 10.995 20.8726 10.8231 21.0544 10.8231Z" fill="white"/>
<path d="M25.4167 9.69329C25.0596 9.95733 25.0532 10.1416 25.0532 10.4608C25.0532 10.5775 24.9883 10.7126 24.6701 10.7126C24.404 10.7126 24.313 10.6205 24.313 10.3011C24.313 9.7731 24.5597 9.52131 24.748 9.3678C24.9622 9.19588 25.3257 9.00554 25.3257 8.67401C25.3257 8.39156 25.0661 8.2564 24.7415 8.2564C24.0795 8.2564 24.2222 8.72925 23.8717 8.72925C23.6964 8.72925 23.4822 8.61872 23.4822 8.37925C23.4822 8.04765 23.8847 7.55646 24.761 7.55646C25.5919 7.55646 26.1437 7.99242 26.1437 8.56964C26.1437 9.1468 25.5919 9.56435 25.4167 9.69329ZM25.1765 11.6091C25.1765 11.8609 24.9557 12.0819 24.6766 12.0819C24.3974 12.0819 24.1832 11.8609 24.1832 11.6091C24.1832 11.3512 24.4039 11.1362 24.6766 11.1362C24.9493 11.1362 25.1765 11.3511 25.1765 11.6091Z" fill="white"/>
<path d="M8.00797 15.8083C7.50401 15.8083 7.02467 15.529 6.81397 15.063C6.53199 14.4396 6.83776 13.718 7.49685 13.4513L11.3685 11.8849L11.3499 9.10364C11.3485 8.85514 11.1352 8.65426 10.8741 8.65426H7.38445C6.6676 8.65426 6.08643 8.1046 6.08643 7.42648C6.08643 6.74836 6.66753 6.1987 7.38445 6.1987H10.8741C12.5593 6.1987 13.9373 7.49556 13.9458 9.08956L13.9699 12.685C13.9732 13.1792 13.6628 13.6272 13.1824 13.8216L8.51772 15.7089C8.35137 15.7764 8.17825 15.8083 8.00797 15.8083Z" fill="#1B224A"/>
<path d="M7.40059 5.08915C8.88632 5.08915 10.0907 3.9499 10.0907 2.54457C10.0907 1.13924 8.88632 0 7.40059 0C5.91487 0 4.71045 1.13924 4.71045 2.54457C4.71045 3.9499 5.91487 5.08915 7.40059 5.08915Z" fill="#FFB69E"/>
<path d="M10.8352 7.42639H3.95972V17.9649H10.8352V7.42639Z" fill="#252D5C"/>
<path d="M7.39722 7.42657H10.8348V17.9647H7.39722" fill="#1B224A"/>
<path d="M5.4895 13.9234C5.11709 13.9234 4.75809 13.7715 4.50923 13.5003C4.24929 13.2169 1.9516 10.7034 1.33975 9.71741C1.30172 9.6562 1.26943 9.59194 1.24313 9.52543C0.953803 8.79262 1.05989 8.00142 1.5344 7.35482C2.05756 6.64183 2.97396 6.19885 3.92593 6.19885H6.72584L6.79487 6.02803C7.05094 5.39466 7.80105 5.07758 8.47078 5.31967C9.14032 5.56182 9.47567 6.27158 9.2196 6.90489L6.70186 13.1341C6.53899 13.5371 6.16432 13.8296 5.71515 13.9047C5.64 13.9173 5.56446 13.9234 5.4895 13.9234ZM3.73496 8.70215C4.01874 9.08977 4.52567 9.69534 5.06276 10.3137L5.73339 8.65429H3.92593C3.84775 8.65429 3.78149 8.67697 3.73496 8.70215Z" fill="#252D5C"/>
<path d="M9.21965 6.90483C9.47572 6.27152 9.14037 5.5617 8.47083 5.31961C7.8011 5.07752 7.05093 5.3946 6.79492 6.02797L9.21965 6.90483Z" fill="#FFB69E"/>
<path d="M6.81394 15.063C6.53196 14.4396 6.83773 13.718 7.49682 13.4514L12.1615 11.5641C12.8208 11.2975 13.5835 11.5867 13.8654 12.2101C14.1474 12.8335 13.8416 13.5551 13.1825 13.8217L8.51783 15.709C7.86085 15.9747 7.09683 15.6886 6.81394 15.063Z" fill="#1B224A"/>
<path d="M7.49682 13.4513C6.83773 13.718 6.53196 14.4395 6.81394 15.0629C7.09683 15.6884 7.86085 15.9746 8.51776 15.7089L7.49682 13.4513Z" fill="#FFB69E"/>
<path d="M8.51819 15.7083L9.1106 15.4686L8.0896 13.211L7.49719 13.4507L8.51819 15.7083Z" fill="white"/>
<path d="M9.2197 6.90482L8.98999 7.4732L6.55688 6.60505L6.79491 6.02795L9.2197 6.90482Z" fill="white"/>
</svg>
