<svg viewBox="0 0 23 23" fill="none" xmlns="http://www.w3.org/2000/svg">
<g clip-path="url(#clip0)">
<path d="M8.6145 2.875C3.85925 2.875 -0.010498 6.74379 -0.010498 11.5C-0.010498 16.2562 3.85925 20.125 8.6145 20.125C13.3698 20.125 17.2395 16.2562 17.2395 11.5C17.2395 6.74379 13.3707 2.875 8.6145 2.875Z" fill="#FAFAFA"/>
<path d="M8.6145 20.125C3.85925 20.125 -0.010498 16.2562 -0.010498 11.5C-0.010498 6.74379 3.85925 2.875 8.6145 2.875C13.3698 2.875 17.2395 6.74379 17.2395 11.5C17.2395 16.2562 13.3707 20.125 8.6145 20.125ZM8.6145 4.3125C4.65084 4.3125 1.427 7.53633 1.427 11.5C1.427 15.4637 4.65084 18.6875 8.6145 18.6875C12.5782 18.6875 15.802 15.4637 15.802 11.5C15.802 7.53633 12.5782 4.3125 8.6145 4.3125Z" fill="#F44336"/>
<path d="M8.61458 16.7708C5.70796 16.7708 3.34375 14.4066 3.34375 11.5C3.34375 8.59336 5.70796 6.22916 8.61458 6.22916C11.5212 6.22916 13.8854 8.59336 13.8854 11.5C13.8854 14.4066 11.5212 16.7708 8.61458 16.7708ZM8.61458 7.66666C6.5005 7.66666 4.78125 9.38686 4.78125 11.5C4.78125 13.6131 6.5005 15.3333 8.61458 15.3333C10.7287 15.3333 12.4479 13.6131 12.4479 11.5C12.4479 9.38686 10.7287 7.66666 8.61458 7.66666Z" fill="#F44336"/>
<path d="M8.61467 13.4167C7.55762 13.4167 6.698 12.558 6.698 11.5C6.698 10.442 7.55762 9.58334 8.61467 9.58334C9.67171 9.58334 10.5313 10.442 10.5313 11.5C10.5313 12.558 9.67171 13.4167 8.61467 13.4167ZM8.61467 11.0208C8.35017 11.0208 8.1355 11.2365 8.1355 11.5C8.1355 11.7636 8.35017 11.9792 8.61467 11.9792C8.87916 11.9792 9.09383 11.7636 9.09383 11.5C9.09383 11.2365 8.87916 11.0208 8.61467 11.0208Z" fill="#F44336"/>
<path d="M8.6145 2.875C3.85925 2.875 -0.010498 6.74379 -0.010498 11.5C-0.010498 16.2562 3.85925 20.125 8.6145 20.125V18.6875C4.65084 18.6875 1.427 15.4637 1.427 11.5C1.427 7.53633 4.65084 4.3125 8.6145 4.3125V2.875Z" fill="#D43A2F"/>
<path d="M8.61458 6.22916C5.70796 6.22916 3.34375 8.59336 3.34375 11.5C3.34375 14.4066 5.70796 16.7708 8.61458 16.7708V15.3333C6.5005 15.3333 4.78125 13.6131 4.78125 11.5C4.78125 9.38686 6.5005 7.66666 8.61458 7.66666V6.22916Z" fill="#D43A2F"/>
<path d="M8.61442 9.58334C7.55738 9.58334 6.69775 10.442 6.69775 11.5C6.69775 12.558 7.55738 13.4167 8.61442 13.4167V11.9792C8.34992 11.9792 8.13525 11.7636 8.13525 11.5C8.13525 11.2365 8.34992 11.0208 8.61442 11.0208V9.58334Z" fill="#D43A2F"/>
<path d="M8.6145 7.66667C6.50042 7.66667 4.78117 9.38687 4.78117 11.5C4.78117 13.6131 6.50042 15.3333 8.6145 15.3333V13.4167C7.55746 13.4167 6.69784 12.558 6.69784 11.5C6.69784 10.442 7.55746 9.58333 8.6145 9.58333V7.66667ZM8.6145 4.3125C4.65084 4.3125 1.427 7.53633 1.427 11.5C1.427 15.4637 4.65084 18.6875 8.6145 18.6875V16.7708C5.70788 16.7708 3.34367 14.4066 3.34367 11.5C3.34367 8.59337 5.70788 6.22917 8.6145 6.22917V4.3125Z" fill="#DADADA"/>
<path d="M8.625 12.2188C8.441 12.2188 8.257 12.1488 8.11709 12.0079C7.8363 11.7271 7.8363 11.2719 8.11709 10.9911L14.3463 4.76195C14.627 4.48116 15.0823 4.48116 15.363 4.76195C15.6438 5.04275 15.6438 5.49796 15.363 5.77875L9.13388 12.0079C8.993 12.1488 8.809 12.2188 8.625 12.2188Z" fill="#607D8B"/>
<path d="M17.4896 5.75011H15.0938C14.697 5.75011 14.375 5.42811 14.375 5.03136V2.63552C14.375 2.44482 14.4507 2.26177 14.5858 2.12761L16.5025 0.210941C16.7085 0.00585738 17.0181 -0.0564343 17.2855 0.0547324C17.5538 0.166857 17.7292 0.428482 17.7292 0.718857V2.39594H19.4063C19.6966 2.39594 19.9592 2.57132 20.0704 2.83965C20.1816 3.10798 20.1202 3.41848 19.9142 3.62261L17.9975 5.53927C17.8633 5.6744 17.6803 5.75011 17.4896 5.75011Z" fill="#2196F3"/>
<path d="M14.5857 5.53915L8.11694 12.0079C8.25782 12.1488 8.44086 12.2187 8.62486 12.2187C8.80886 12.2187 8.99286 12.1488 9.13277 12.0079L15.3619 5.77874C15.3715 5.76915 15.3811 5.75957 15.3897 5.74999H15.0936C14.8952 5.74999 14.7151 5.66949 14.5857 5.53915Z" fill="#546D79"/>
<path d="M19.4061 2.39584H17.729L14.5857 5.53918C14.7151 5.66951 14.8952 5.75001 15.0936 5.75001H15.3897H17.4894C17.6801 5.75001 17.8632 5.6743 17.9974 5.53918L19.914 3.62251C20.1191 3.41743 20.1814 3.10789 20.0702 2.83955C19.9591 2.57122 19.6965 2.39584 19.4061 2.39584Z" fill="#1D83D4"/>
<path d="M16.7709 23C13.3362 23 10.5417 20.2055 10.5417 16.7708C10.5417 13.3362 13.3362 10.5417 16.7709 10.5417C20.2056 10.5417 23.0001 13.3362 23.0001 16.7708C23.0001 20.2055 20.2056 23 16.7709 23Z" fill="#2196F3"/>
<path d="M16.7709 10.5417C13.3362 10.5417 10.5417 13.3362 10.5417 16.7708C10.5417 20.2055 13.3362 23 16.7709 23V10.5417Z" fill="#1D83D4"/>
<path d="M15.8126 19.1667C15.6468 19.1667 15.48 19.1092 15.3449 18.9932L13.6678 17.5557C13.3669 17.297 13.3314 16.8437 13.5902 16.5418C13.8489 16.2409 14.3013 16.2045 14.6041 16.4642L15.757 17.4513L18.4001 14.605C18.6703 14.3127 19.1246 14.2964 19.4159 14.5667C19.7072 14.8369 19.7235 15.2921 19.4542 15.5825L16.3397 18.9367C16.1978 19.089 16.0052 19.1667 15.8126 19.1667Z" fill="#FAFAFA"/>
<path d="M19.4159 14.5667L15.802 18.4968L13.5892 16.5428C13.3305 16.8437 13.3659 17.2979 13.6668 17.5567L15.3439 18.9942C15.48 19.1092 15.6468 19.1667 15.8126 19.1667C16.0052 19.1667 16.1978 19.0891 16.3396 18.9367L19.4542 15.5825C19.7245 15.2921 19.7072 14.8369 19.4159 14.5667Z" fill="#DADADA"/>
</g>
<defs>
<clipPath id="clip0">
<rect width="23" height="23" fill="white"/>
</clipPath>
</defs>
</svg>
